<?xml version="1.0" encoding="UTF-8"?>
<svg width="1200" height="900" xmlns="http://www.w3.org/2000/svg">
  <defs>
    <style>
      .title { font-size: 48px; font-weight: bold; fill: #2c3e50; }
      .stat-number { font-size: 48px; font-weight: bold; fill: white; }
      .stat-label { font-size: 18px; fill: white; }
      .module-label { font-size: 14px; fill: white; }
      .label { font-size: 16px; fill: #2c3e50; }
    </style>
  </defs>
  
  <rect width="1200" height="900" fill="#ffffff"/>
  
  <text x="600" y="60" class="title" text-anchor="middle">Project Statistics Overview</text>
  
  <!-- Big Number Stats -->
  <rect x="100" y="120" width="250" height="180" fill="#3498db" rx="8"/>
  <text x="225" y="180" class="stat-number" text-anchor="middle">131</text>
  <text x="225" y="225" class="stat-label" text-anchor="middle" font-size="20">Total Tests</text>
  <text x="225" y="280" class="stat-label" text-anchor="middle" font-size="14">Comprehensive</text>
  
  <rect x="400" y="120" width="250" height="180" fill="#27ae60" rx="8"/>
  <text x="525" y="175" class="stat-number" text-anchor="middle" font-size="40">83.6%</text>
  <text x="525" y="225" class="stat-label" text-anchor="middle" font-size="20">Branch Coverage</text>
  <text x="525" y="280" class="stat-label" text-anchor="middle" font-size="14">High quality</text>
  
  <rect x="700" y="120" width="250" height="180" fill="#e74c3c" rx="8"/>
  <text x="825" y="180" class="stat-number" text-anchor="middle">100%</text>
  <text x="825" y="225" class="stat-label" text-anchor="middle" font-size="20">Critical Coverage</text>
  <text x="825" y="280" class="stat-label" text-anchor="middle" font-size="14">Protected paths</text>
  
  <rect x="1000" y="120" width="100" height="180" fill="#f39c12" rx="8"/>
  <text x="1050" y="180" class="stat-number" text-anchor="middle" font-size="36">4</text>
  <text x="1050" y="225" class="stat-label" text-anchor="middle" font-size="14">Testing</text>
  <text x="1050" y="245" class="stat-label" text-anchor="middle" font-size="14">Techniques</text>
  
  <!-- Module Breakdown -->
  <text x="100" y="360" class="label" font-weight="bold" font-size="20">Module Distribution:</text>
  
  <rect x="100" y="380" width="350" height="120" fill="#d5f4e6" rx="8"/>
  <text x="120" y="410" class="label" font-weight="bold" font-size="18" fill="#27ae60">Summation Module</text>
  <text x="120" y="440" class="label" font-size="15">87 Tests (66.4% of total)</text>
  <text x="120" y="465" class="label" font-size="14">• Service Layer: 49 tests</text>
  <text x="120" y="485" class="label" font-size="14">• Controller Layer: 38 tests</text>
  
  <rect x="500" y="380" width="350" height="120" fill="#d6eaf8" rx="8"/>
  <text x="520" y="410" class="label" font-weight="bold" font-size="18" fill="#3498db">Transactions Module</text>
  <text x="520" y="440" class="label" font-size="15">40 Tests (30.5% of total)</text>
  <text x="520" y="465" class="label" font-size="14">• Service Layer: 20 tests</text>
  <text x="520" y="485" class="label" font-size="14">• Controller Layer: 20 tests</text>
  
  <rect x="900" y="380" width="200" height="120" fill="#f4ecf7" rx="8"/>
  <text x="920" y="410" class="label" font-weight="bold" font-size="18" fill="#9b59b6">E2E Tests</text>
  <text x="920" y="440" class="label" font-size="15">4 Tests (3.1%)</text>
  <text x="920" y="465" class="label" font-size="14">• Integration tests</text>
  <text x="920" y="485" class="label" font-size="14">• Full workflows</text>
  
  <!-- Technology &amp; Architecture -->
  <rect x="100" y="560" width="1000" height="280" fill="#ecf0f1" rx="8"/>
  <text x="120" y="590" class="label" font-weight="bold" font-size="18">🛠️ Technology &amp; Architecture Stack:</text>
  
  <rect x="120" y="610" width="220" height="90" fill="#3498db" rx="5"/>
  <text x="130" y="630" class="label" font-weight="bold" fill="white">Framework</text>
  <text x="130" y="655" class="label" font-size="13" fill="white">NestJS (TypeScript)</text>
  <text x="130" y="675" class="label" font-size="13" fill="white">Jest Test Framework</text>
  
  <rect x="360" y="610" width="220" height="90" fill="#27ae60" rx="5"/>
  <text x="370" y="630" class="label" font-weight="bold" fill="white">Architecture</text>
  <text x="370" y="655" class="label" font-size="13" fill="white">Clean Architecture</text>
  <text x="370" y="675" class="label" font-size="13" fill="white">Onion Pattern</text>
  
  <rect x="600" y="610" width="220" height="90" fill="#e74c3c" rx="5"/>
  <text x="610" y="630" class="label" font-weight="bold" fill="white">Testing Approach</text>
  <text x="610" y="655" class="label" font-size="13" fill="white">Multi-technique</text>
  <text x="610" y="675" class="label" font-size="13" fill="white">Data-driven &amp; Mocking</text>
  
  <rect x="840" y="610" width="220" height="90" fill="#f39c12" rx="5"/>
  <text x="850" y="630" class="label" font-weight="bold" fill="white">Coverage Tools</text>
  <text x="850" y="655" class="label" font-size="13" fill="white">Istanbul/nyc</text>
  <text x="850" y="675" class="label" font-size="13" fill="white">83.60% baseline</text>
  
  <text x="120" y="760" class="label" font-size="14">✓ Clean layered architecture enables independent component testing  ✓ TypeScript provides compile-time type safety</text>
  <text x="120" y="785" class="label" font-size="14">✓ Jest provides excellent mocking and assertion capabilities  ✓ Data-driven approach covers edge cases systematically</text>
  <text x="120" y="810" class="label" font-size="14">✓ Comprehensive testing from unit to E2E integration  ✓ Strategic coverage focus on critical components (100%)</text>
</svg>